<?xml version="1.0" encoding="utf-8"?>
<!-- Generator: Adobe Illustrator 16.0.0, SVG Export Plug-In . SVG Version: 6.00 Build 0)  -->
<!DOCTYPE svg PUBLIC "-//W3C//DTD SVG 1.1//EN" "http://www.w3.org/Graphics/SVG/1.1/DTD/svg11.dtd">
<svg version="1.1" id="Layer_1" xmlns="http://www.w3.org/2000/svg" xmlns:xlink="http://www.w3.org/1999/xlink" x="0px" y="0px"
	 width="418px" height="168px" viewBox="0 0 418 168" enable-background="new 0 0 418 168" xml:space="preserve">
<g>
	<path fill-rule="evenodd" clip-rule="evenodd" fill="#A0D8C1" d="M274.379,145.074c0.959,2.626,5.981,2.852,3.572,5.919
		c-2.189,2.786-4.473-0.729-6.213-1.956c-6.027-4.248-12.75-4.252-19.609-4.041c-2.5,0.077-2.961,1.647-3.007,3.676
		c-0.03,1.377-0.238,2.951-1.938,2.943c-2.023-0.009-2.009-1.772-2.118-3.303c-0.357-4.99,1.753-7.313,6.959-7.372
		c6.319-0.07,12.64-0.015,18.96-0.032c1.313-0.004,3.181,0.169,3.238-1.472c0.061-1.764-1.836-1.522-3.117-1.527
		c-6.984-0.028-13.97-0.02-20.955-0.016c-1.879,0.002-4.314-0.03-4.406-2.2c-0.115-2.691,2.524-2.538,4.494-2.548
		c6.652-0.034,13.307,0.047,19.957-0.036c3.824-0.048,7.183,0.996,8.435,4.803C279.752,141.322,277.113,143.361,274.379,145.074z"/>
	<path fill-rule="evenodd" clip-rule="evenodd" fill="#9FD7C0" d="M300.07,140.933c4.329-0.003,8.659-0.018,12.988,0.006
		c1.501,0.008,3.371-0.063,3.371,1.988c0,2.016-1.854,2.03-3.359,2.036c-7.326,0.025-14.654-0.038-21.98,0.067
		c-1.254,0.018-3.576-0.919-3.48,1.407c0.079,1.924,2.246,1.531,3.684,1.537c7.161,0.032,14.322-0.03,21.482,0.053
		c1.638,0.02,4.191-0.799,4.129,2.105c-0.053,2.472-2.352,1.853-3.883,1.863c-7.826,0.055-15.654,0.095-23.479-0.005
		c-4.589-0.059-6.495-2.346-6.552-6.89c-0.037-2.971,1.078-4.272,4.092-4.194C291.408,141.019,295.74,140.936,300.07,140.933z"/>
	<path fill-rule="evenodd" clip-rule="evenodd" fill="#A0D9C1" d="M337.17,132.935c2.049-0.313,3.517,0.788,4.676,2.265
		c3.277,4.172,6.491,8.396,9.682,12.635c0.76,1.009,1.954,2.134,0.44,3.426c-1.609,1.374-2.751,0.346-3.716-0.939
		c-2.39-3.186-4.625-6.495-7.141-9.575c-3.794-4.644-3.866-4.573-7.418,0.013c-2.541,3.28-5.07,6.569-7.675,9.798
		c-0.728,0.901-1.735,1.792-2.983,0.852c-1.33-1.004-1.146-2.277-0.222-3.493c3.313-4.358,6.612-8.728,9.972-13.049
		C333.855,133.489,335.307,132.71,337.17,132.935z"/>
	<path fill-rule="evenodd" clip-rule="evenodd" fill="#9DD6BE" d="M374.98,152.009c-4-0.004-8.003,0.101-11.998-0.034
		c-3.744-0.125-5.824-2.211-5.953-5.981c-0.104-2.996-0.031-5.999-0.015-8.998c0.007-1.371,0.065-2.827,1.905-2.919
		c1.885-0.095,2.021,1.33,2.071,2.729c0.012,0.333-0.003,0.667,0.011,1c0.444,10.192,0.444,10.191,10.559,10.192
		c5.166,0,10.332-0.014,15.498,0.017c1.504,0.009,3.395,0.014,3.354,2.028c-0.04,1.981-1.933,1.949-3.434,1.96
		C382.979,152.03,378.98,152.012,374.98,152.009z"/>
	<path fill-rule="evenodd" clip-rule="evenodd" fill="#A8DCC7" d="M300.275,137.89c-4.491,0-8.984,0.053-13.474-0.03
		c-1.509-0.027-3.354-0.41-3.479-2.163c-0.159-2.243,1.963-2.507,3.557-2.524c8.981-0.099,17.965-0.068,26.947-0.056
		c1.592,0.003,3.344,0.484,3.44,2.193c0.118,2.095-1.769,2.571-3.517,2.592c-4.491,0.051-8.982,0.017-13.475,0.017
		C300.275,137.908,300.275,137.898,300.275,137.89z"/>
	<path fill-rule="evenodd" clip-rule="evenodd" fill="#A7DBC6" d="M339.889,147.535c-0.317,1.563-1.155,2.493-2.696,2.308
		c-1.507-0.182-2.296-1.204-2.087-2.733c0.176-1.288,1.08-2.04,2.358-2.002C338.994,145.151,339.742,146.135,339.889,147.535z"/>
</g>
<path fill="#9CD6BE" stroke="#000B5E" stroke-width="3" stroke-miterlimit="10" d="M388.684,104v21h-61.615
	c-18.555-2.054-23.96-28.067-4.813-39l43.324-25.087c4.342-1.871,2.066-8.908-1.896-8.913h-45.842l-11.158-21h63.909
	c20.533-0.155,18.091,14.859,18.091,22.292c0,14.241-0.841,17.45-11.472,23.467L337,99c-4.734,2.319-3.937,4.827,0,5H388.684z"/>
<path fill="#FFFFFF" stroke="#000B5E" stroke-width="3" stroke-miterlimit="10" d="M18.312,125l46.284-82.797
	c10.749-17.746,38.037-13.097,40.878,0l5.405,44.932l26.014-45.608c7.753-12.969,38.628-12.837,40.878-1.014L187.906,125h-22.635
	l-8.108-71.987c-0.241-1.529-2.319-2.216-3.378-0.338L114.595,125H92.298l-8.446-71.311c-0.24-1.238-1.916-1.573-2.703-0.338
	L41.622,125H18.312z"/>
<path fill="#FFFFFF" stroke="#000B5E" stroke-width="3" stroke-miterlimit="10" d="M165.271,125l45.267-83
	c10.439-15.639,40.68-12.245,42.23,0l11.148,83h-25l-3.041-25h-18.919l4.73-20h11.486l-2.027-27c-0.531-2.038-2.219-2.271-3.716,0
	l-39.524,72H165.271z"/>
<path fill="#FFFFFF" stroke="#000B5E" stroke-width="3" stroke-miterlimit="10" d="M238.915,125.062l10.711-40.494
	c2.631-6.788,8.744-16.522,23.988-16.506h34.098c0,0,6.418-0.418,6.418-10.045c0-5.903-5.215-6.955-5.215-6.955h-50.62L263.385,31
	h50.545c33.896,1.204,20.832,35.371,14.441,44.667c-6.619,9.627-19.656,12.395-19.656,12.395h-28.683
	c-10.229-0.36-10.63,8.866-11.031,11.072l-5.616,25.928H238.915z"/>
<rect x="357.838" y="104" display="none" fill-rule="evenodd" clip-rule="evenodd" fill="#263C7B" width="30.846" height="21"/>
<rect x="358.978" y="31" display="none" fill="#D3D39B" width="10.893" height="21"/>
</svg>
