<?xml version="1.0" encoding="utf-8"?>
<!-- Generator: Adobe Illustrator 16.0.0, SVG Export Plug-In . SVG Version: 6.00 Build 0)  -->
<!DOCTYPE svg PUBLIC "-//W3C//DTD SVG 1.1//EN" "http://www.w3.org/Graphics/SVG/1.1/DTD/svg11.dtd">
<svg version="1.1" id="Layer_1" xmlns="http://www.w3.org/2000/svg" xmlns:xlink="http://www.w3.org/1999/xlink" x="0px" y="0px"
	 width="50px" height="50px" viewBox="0 0 50 50" enable-background="new 0 0 50 50" xml:space="preserve">
<g>
	<path display="none" fill="#ECEFF0" d="M34.595,19.038v-5.591c0-3.542-2.871-6.413-6.412-6.413h-4.332
		c-3.541,0-6.412,2.871-6.412,6.413v5.591c-1.911,0.445-1.912,1.622-1.912,1.622s1.266-0.28,1.912-0.497v21.239
		c0,1.987,1.611,3.599,3.599,3.599h9.956c1.989,0,3.601-1.611,3.601-3.599V20.163c0.646,0.217,1.912,0.497,1.912,0.497
		S36.505,19.482,34.595,19.038z"/>
	<g>
		<path fill="#4484C5" d="M29.519,42.967H18.447c-1.68,0-3.042-1.361-3.042-3.041V11.587C15.406,7.949,18.355,5,21.993,5h3.98
			c3.638,0,6.587,2.949,6.587,6.587v28.338C32.561,41.605,31.199,42.967,29.519,42.967z"/>
		<path fill="#5D9ED6" d="M26.079,41.258h-4.192c-3.377,0-5.068-0.567-5.068-3.943l1.231-15.483l-2.277-9.607
			c0-3.542,2.871-6.413,6.412-6.413h3.598c3.541,0,6.411,2.871,6.411,6.413l-2.276,9.607l1.231,15.483
			C31.148,40.69,29.457,41.258,26.079,41.258z"/>
		<path fill="#4484C5" d="M15.729,16.938c0.474-0.08,0.323,0.844,0,1.055c-0.323,0.211-2.235,0.633-2.235,0.633
			S13.494,17.318,15.729,16.938z"/>
		<path fill="#46484B" d="M16.031,14.871c0,0,1.301,6.37,1.428,7.593c0.127,1.224,0.253,13.879,0,14.427
			c-0.253,0.549-0.64,0.423-0.64,0.423s-0.788-1.478-0.788-8.943C16.031,20.904,16.031,14.871,16.031,14.871z"/>
		<path fill="#F16268" d="M16.446,39.55c0.084,0.338,1.519,1.856,1.603,2.151c0.084,0.296-0.759,0.653-1.603-0.253
			S16.446,39.55,16.446,39.55z"/>
		<path fill="#FFCD05" d="M18.303,41.258c0,0,1.033,0.274,1.455,1.055C19.758,42.313,18.429,42.25,18.303,41.258z"/>
		<path fill="#E9E8D8" d="M16.362,10.021c0,0-0.231-2.911,2.668-3.628C19.03,6.392,18.26,9.092,16.362,10.021z"/>
		<path fill="#4484C5" d="M32.237,16.938c-0.475-0.08-0.323,0.844,0,1.055c0.323,0.211,2.235,0.633,2.235,0.633
			S34.473,17.318,32.237,16.938z"/>
		<path fill="#46484B" d="M31.936,14.871c0,0-1.302,6.37-1.428,7.593c-0.127,1.224-0.253,13.879,0,14.427
			c0.253,0.549,0.641,0.423,0.641,0.423s0.787-1.478,0.787-8.943C31.936,20.904,31.936,14.871,31.936,14.871z"/>
		<path fill="#46484B" d="M18.049,21.832c0,0-1.493-6.412-1.231-7.592c0.261-1.182,3.542-2.068,7.165-2.068
			c3.622,0,6.903,0.886,7.164,2.068c0.263,1.181-1.23,7.592-1.23,7.592s-2.002-0.379-5.934-0.379
			C20.051,21.453,18.049,21.832,18.049,21.832z M23.983,40.646c-4.401,0-5.681-1.097-5.681-1.097l-0.886,0.675
			c2.615,1.899,6.567,1.688,6.567,1.688s3.951,0.212,6.566-1.688l-0.887-0.675C29.663,39.55,28.384,40.646,23.983,40.646z"/>
		<path fill="#F16268" d="M31.52,39.55c-0.084,0.338-1.519,1.856-1.603,2.151c-0.085,0.296,0.759,0.653,1.603-0.253
			C32.364,40.542,31.52,39.55,31.52,39.55z"/>
		<path fill="#FFCD05" d="M29.663,41.258c0,0-1.033,0.274-1.455,1.055C28.208,42.313,29.537,42.25,29.663,41.258z"/>
		<path fill="#E9E8D8" d="M31.604,10.021c0,0,0.231-2.911-2.668-3.628C28.937,6.392,29.706,9.092,31.604,10.021z"/>
	</g>
</g>
</svg>
