<?xml version="1.0" encoding="utf-8"?>
<!-- Generator: Adobe Illustrator 16.0.0, SVG Export Plug-In . SVG Version: 6.00 Build 0)  -->
<!DOCTYPE svg PUBLIC "-//W3C//DTD SVG 1.1//EN" "http://www.w3.org/Graphics/SVG/1.1/DTD/svg11.dtd">
<svg version="1.1" id="Layer_1" xmlns="http://www.w3.org/2000/svg" xmlns:xlink="http://www.w3.org/1999/xlink" x="0px" y="0px"
	 width="50px" height="50px" viewBox="0 0 50 50" enable-background="new 0 0 50 50" xml:space="preserve">
<g>
	<path display="none" fill="#ECEFF0" d="M15.478,18.754c0.088-0.022,0.838-0.337,1.283-0.525l0.017,0.121
		c0.155,1.089,0.226,2.187,0.21,3.287l-0.169,12.2c-0.01,0.718-0.123,1.429-0.335,2.114c-0.223,0.717-0.336,1.465-0.336,2.216v5.415
		c0,2.992,2.425,5.418,5.417,5.418h9.156c2.992,0,5.417-2.426,5.417-5.418v-5.415c0-0.751-0.113-1.499-0.337-2.216
		c-0.212-0.686-0.325-1.396-0.335-2.114l-0.17-12.2c-0.016-1.101,0.055-2.198,0.211-3.287l0.017-0.121
		c0.445,0.188,1.195,0.502,1.283,0.525c0.126,0.032,0.315-0.316,0.126-0.695c-0.154-0.31-0.941-0.89-1.229-1.095l0.221-1.553
		c0.143-0.991,0.213-1.991,0.213-2.993v-2.131c0-3.868-3.137-7.005-7.006-7.005h-5.979c-3.869,0-7.005,3.137-7.005,7.005v2.131
		c0,1.002,0.071,2.001,0.212,2.993l0.222,1.553c-0.287,0.205-1.074,0.785-1.229,1.095C15.162,18.438,15.352,18.786,15.478,18.754z"
		/>
	<g>
		<path fill="#F37021" d="M14.076,13.129c-0.142-0.991-0.212-1.992-0.212-2.993v-2.13C13.863,4.136,17,1,20.869,1h2.989h2.989
			c3.869,0,7.006,3.136,7.006,7.005v2.13c0,1.001-0.071,2.002-0.212,2.993l-0.42,2.938c-0.154,1.087-0.225,2.187-0.21,3.286
			l0.169,12.202c0.011,0.717,0.123,1.428,0.337,2.112c0.223,0.719,0.336,1.466,0.336,2.218V41.3c0,2.991-2.426,5.416-5.418,5.416
			h-4.577H19.28c-2.991,0-5.417-2.425-5.417-5.416v-5.415c0-0.752,0.113-1.499,0.337-2.218c0.212-0.685,0.326-1.396,0.335-2.112
			l0.169-12.202c0.015-1.099-0.055-2.198-0.21-3.286L14.076,13.129z"/>
		<path fill="#F68C1F" d="M33.091,13.732c0.134-0.935,0.2-1.878,0.2-2.824v-2.01c0-3.651-2.96-6.612-6.611-6.612h-2.821h-2.821
			c-3.651,0-6.611,2.96-6.611,6.612v2.01c0,0.946,0.067,1.889,0.2,2.824l0.395,2.772c0.146,1.028,0.213,2.064,0.199,3.102
			l-0.16,11.514c-0.009,0.676-0.116,1.348-0.317,1.994c-0.21,0.678-0.317,1.383-0.317,2.092v5.11c0,2.823,2.289,5.112,5.112,5.112
			h4.32h4.319c2.824,0,5.113-2.289,5.113-5.112v-5.11c0-0.709-0.107-1.414-0.317-2.092c-0.202-0.646-0.309-1.318-0.317-1.994
			l-0.16-11.514c-0.014-1.038,0.052-2.074,0.198-3.102L33.091,13.732z"/>
		<path fill="#E9E8D8" d="M15.233,5.009c-0.569-0.833,1.895-2.462,2.621-1.894C18.579,3.684,15.707,5.704,15.233,5.009z"/>
		<path fill="#F26822" d="M14.401,14.608c0,0-1.144,0.789-1.333,1.168c-0.189,0.378,0,0.725,0.126,0.693
			c0.127-0.031,1.61-0.663,1.61-0.663L14.401,14.608z"/>
		<path fill="#46484B" d="M16.193,25.985c0.011-2.031-0.018-3.78-0.077-5.032c-0.189-4.01-0.916-7.199-0.916-7.199
			c-0.239,4.758-0.349,8.619-0.379,11.743C15.273,25.703,15.731,25.8,16.193,25.985z"/>
		<path fill="#46484B" d="M14.819,25.87c-0.073,9.642,0.635,12.038,0.635,12.038c0.493-1.933,0.71-7.129,0.738-11.578
			C15.74,26.188,15.282,25.97,14.819,25.87z"/>
		<path fill="#46484B" d="M31.523,25.985c-0.012-2.031,0.018-3.78,0.076-5.032c0.19-4.01,0.916-7.199,0.916-7.199
			c0.238,4.758,0.35,8.619,0.379,11.743C32.443,25.703,31.984,25.8,31.523,25.985z"/>
		<path fill="#46484B" d="M32.897,25.87c0.073,9.642-0.634,12.038-0.634,12.038c-0.495-1.933-0.711-7.129-0.738-11.578
			C31.977,26.188,32.435,25.97,32.897,25.87z"/>
		
			<ellipse transform="matrix(0.9036 0.4284 -0.4284 0.9036 20.8245 -2.8242)" fill="#FFCD05" cx="16.687" cy="44.852" rx="1.316" ry="0.536"/>
		<path fill="#E9E8D8" d="M32.483,5.009c0.568-0.833-1.894-2.462-2.62-1.894C29.138,3.684,32.01,5.704,32.483,5.009z"/>
		<path fill="#F26822" d="M33.315,14.608c0,0,1.144,0.789,1.333,1.168c0.189,0.378,0,0.725-0.126,0.693
			c-0.126-0.031-1.61-0.663-1.61-0.663L33.315,14.608z"/>
		
			<ellipse transform="matrix(-0.9036 0.4284 -0.4284 -0.9036 78.2841 72.0854)" fill="#FFCD05" cx="31.03" cy="44.852" rx="1.316" ry="0.536"/>
		<path fill="#46484B" d="M23.858,35.855c4.647,0,6.731-0.916,6.731-0.916v6.978c0,0-1.718,1.927-6.731,1.927l0,0l0,0l0,0l0,0
			c-5.014,0-6.731-1.927-6.731-1.927v-6.978C17.127,34.939,19.211,35.855,23.858,35.855z M23.858,8.641L23.858,8.641L23.858,8.641
			L23.858,8.641L23.858,8.641c-6.457,0-8.089,3.536-8.089,3.536l0.864,6.946c0,0,3.687-0.789,7.225-0.789s7.225,0.789,7.225,0.789
			l0.864-6.946C31.947,12.176,30.315,8.641,23.858,8.641z"/>
	</g>
</g>
</svg>
